<svg xmlns="http://www.w3.org/2000/svg" width="32" height="32" viewBox="0 0 32 32"><rect width="32" height="32" rx="6" fill="#f59e0b"/><path d="M16 10.5c-3 0-5.5 2.5-5.5 5.5s2.5 5.5 5.5 5.5 5.5-2.5 5.5-5.5-2.5-5.5-5.5-5.5zm0 9c-1.9 0-3.5-1.6-3.5-3.5S14.1 12.5 16 12.5s3.5 1.6 3.5 3.5-1.6 3.5-3.5 3.5zm6.5-9.5c0 .6-.5 1-1 1s-1-.4-1-1 .5-1 1-1 1 .4 1 1zm2 1.1c-.1-1.1-.3-1.8-.6-2.4-.3-.6-.7-1.1-1.3-1.7-.6-.6-1.1-1-1.7-1.3-.6-.3-1.3-.5-2.4-.6-1.1-.1-1.5-.1-4.5-.1s-3.4 0-4.5.1c-1.1.1-1.8.3-2.4.6-.6.3-1.1.7-1.7 1.3-.6.6-1 1.1-1.3 1.7-.3.6-.5 1.3-.6 2.4-.1 1.1-.1 1.5-.1 4.5s0 3.4.1 4.5c.1 1.1.3 1.8.6 2.4.3.6.7 1.1 1.3 1.7.6.6 1.1 1 1.7 1.3.6.3 1.3.5 2.4.6 1.1.1 1.5.1 4.5.1s3.4 0 4.5-.1c1.1-.1 1.8-.3 2.4-.6.6-.3 1.1-.7 1.7-1.3.6-.6 1-1.1 1.3-1.7.3-.6.5-1.3.6-2.4.1-1.1.1-1.5.1-4.5s0-3.4-.1-4.5zm-2.2 10.9c-.1.9-.3 1.4-.5 1.8-.2.4-.5.7-.9 1.1-.4.4-.7.7-1.1.9-.4.2-.9.4-1.8.5-1 .1-1.3.1-4.1.1s-3.1 0-4.1-.1c-.9-.1-1.4-.3-1.8-.5-.4-.2-.7-.5-1.1-.9-.4-.4-.7-.7-.9-1.1-.2-.4-.4-.9-.5-1.8-.1-1-.1-1.3-.1-4.1s0-3.1.1-4.1c.1-.9.3-1.4.5-1.8.2-.4.5-.7.9-1.1.4-.4.7-.7 1.1-.9.4-.2.9-.4 1.8-.5 1-.1 1.3-.1 4.1-.1s3.1 0 4.1.1c.9.1 1.4.3 1.8.5.4.2.7.5 1.1.9.4.4.7.7.9 1.1.2.4.4.9.5 1.8.1 1 .1 1.3.1 4.1s0 3.1-.1 4.1z" fill="#fff"/></svg>